# xmcd
#
# Track frame offsets:
#	150
#	19950
#	37027
#	56039
#	69111
#	82816
#	104440
#	120244
#	133969
#	147392
#	165673
#	181048
#	199418
#	219063
#	243024
#
# Disc length: 3376 seconds
#
# Revision: 0
# Processed by: cddbd v1.5.2PL0 Copyright (c) Steve Scherf et al.
# Submitted via: EasyCDDAExtractor 12.0.6 .1
#
DISCID=c90d2e0f
DTITLE=Various Artist - "Наше Радио" Музыка нашего города. Тула
DYEAR=2009
DGENRE=Pop
TTITLE0=BOOJESS - Монахи
TTITLE1=Источник Пепла - Пусть летит
TTITLE2=Ней-МэнгУ - Я (про Ослика)
TTITLE3=NOVA - Чудесный сад
TTITLE4=Живые Картины - Лабиринт
TTITLE5=ВОРОН КУТХА - Варган
TTITLE6=Ховала - Моя Родина
TTITLE7=Ganza! - Жизнь прекрасна
TTITLE8=So Greens - Love Affair
TTITLE9=Тихий Час - Ночной блюз
TTITLE10=Земля Сальникова - Беги
TTITLE11=HEAVENSIDE - Никто не виноват
TTITLE12=Колокол - Счастливое число
TTITLE13=GRENEDE - Dualistick
TTITLE14=Idle Guards - The Long Sleep
EXTD=
EXTT0=
EXTT1=
EXTT2=
EXTT3=
EXTT4=
EXTT5=
EXTT6=
EXTT7=
EXTT8=
EXTT9=
EXTT10=
EXTT11=
EXTT12=
EXTT13=
EXTT14=
PLAYORDER=
